# Blender v2.79 (sub 0) OBJ File: ''
# www.blender.org
mtllib JengaBlock.mtl
o Jenga_Block_Cube
v 0.375000 0.070500 0.125000
v -0.375000 -0.070500 0.125000
v -0.375000 0.070500 0.125000
v -0.375000 0.075000 -0.117500
v 0.375000 0.075000 0.117500
v -0.375000 0.075000 0.117500
v 0.375000 -0.070500 -0.125000
v -0.375000 0.070500 -0.125000
v -0.375000 -0.070500 -0.125000
v -0.375000 -0.074397 0.121250
v 0.375000 -0.075000 0.117500
v -0.375000 -0.075000 0.117500
v -0.375000 -0.072750 0.123995
v 0.375000 -0.074397 0.121250
v 0.375000 -0.072750 0.123995
v -0.375000 -0.072750 -0.123995
v -0.375000 -0.074397 -0.121250
v 0.375000 -0.072750 -0.123995
v -0.375000 -0.075000 -0.117500
v 0.375000 -0.074397 -0.121250
v -0.375000 0.072750 0.123995
v -0.375000 0.074397 0.121250
v 0.375000 0.072750 0.123995
v 0.375000 0.074397 0.121250
v -0.375000 0.074397 -0.121250
v 0.375000 0.075000 -0.117500
v -0.375000 0.072750 -0.123995
v 0.375000 0.074397 -0.121250
v 0.375000 0.072750 -0.123995
v 0.375000 0.070500 -0.125000
v 0.375000 -0.075000 -0.117500
v 0.375000 -0.070500 0.125000
vt 0.327300 0.658700
vt 0.327300 0.341300
vt 0.630400 0.341300
vt 0.311200 0.658700
vt 0.008100 0.658700
vt 0.008100 0.341300
vt 0.949700 0.341300
vt 0.949700 0.658700
vt 0.646600 0.658700
vt 0.118700 0.992100
vt 0.113700 0.992100
vt 0.113700 0.674600
vt 0.965800 0.341300
vt 0.970800 0.341300
vt 0.970800 0.658700
vt 0.008100 0.674600
vt 0.013100 0.674600
vt 0.013100 0.992100
vt 0.986900 0.341300
vt 0.991900 0.341300
vt 0.991900 0.658700
vt 0.076500 0.992100
vt 0.071500 0.992100
vt 0.071500 0.674600
vt 0.097600 0.992100
vt 0.092600 0.992100
vt 0.092600 0.674600
vt 0.177100 0.674600
vt 0.182100 0.674600
vt 0.182100 0.992100
vt 0.134800 0.674600
vt 0.139900 0.674600
vt 0.139900 0.992100
vt 0.161000 0.992100
vt 0.156000 0.992100
vt 0.156000 0.674600
vt 0.203300 0.992100
vt 0.198200 0.992100
vt 0.198200 0.674600
vt 0.034200 0.992100
vt 0.029200 0.992100
vt 0.029200 0.674600
vt 0.050300 0.674600
vt 0.055300 0.674600
vt 0.055300 0.992100
vt 0.685200 0.325400
vt 0.685200 0.007900
vt 0.988400 0.007900
vt 0.669100 0.017500
vt 0.346700 0.017500
vt 0.659500 0.007900
vt 0.320900 0.325400
vt 0.320900 0.007900
vt 0.330500 0.315900
vt 0.630400 0.658700
vt 0.311200 0.341300
vt 0.646600 0.341300
vt 0.118700 0.674600
vt 0.965800 0.658700
vt 0.008100 0.992100
vt 0.986900 0.658700
vt 0.076500 0.674600
vt 0.097600 0.674600
vt 0.177100 0.992100
vt 0.134800 0.992100
vt 0.161000 0.674600
vt 0.203300 0.674600
vt 0.034200 0.674600
vt 0.050300 0.992100
vt 0.988400 0.325400
vt 0.669100 0.315900
vt 0.346700 0.315900
vt 0.348000 0.320600
vt 0.356300 0.325400
vt 0.351500 0.324100
vt 0.659500 0.325400
vt 0.664300 0.324100
vt 0.667800 0.320600
vt 0.667800 0.012700
vt 0.664300 0.009200
vt 0.356300 0.007900
vt 0.351500 0.009200
vt 0.348000 0.012700
vt 0.329200 0.012700
vt 0.330500 0.017500
vt 0.325700 0.009200
vt 0.017700 0.325400
vt 0.017700 0.007900
vt 0.012900 0.009200
vt 0.008100 0.017500
vt 0.009400 0.012700
vt 0.008100 0.315900
vt 0.009400 0.320600
vt 0.012900 0.324100
vt 0.325700 0.324100
vt 0.329200 0.320600
vn 0.0000 -0.0000 1.0000
vn 0.0000 1.0000 0.0000
vn 0.0000 0.0000 -1.0000
vn 0.0072 -0.9873 0.1588
vn -0.0072 -0.9873 0.1588
vn 0.0203 -0.8573 0.5144
vn -0.0203 -0.8573 0.5144
vn 0.0167 -0.4078 0.9129
vn -0.0167 -0.4078 0.9129
vn -0.0167 -0.4078 -0.9129
vn 0.0167 -0.4078 -0.9129
vn -0.0203 -0.8573 -0.5144
vn 0.0203 -0.8573 -0.5144
vn -0.0072 -0.9873 -0.1588
vn 0.0072 -0.9873 -0.1588
vn -0.0167 0.4078 0.9129
vn 0.0167 0.4078 0.9129
vn -0.0203 0.8573 0.5144
vn 0.0203 0.8573 0.5144
vn -0.0072 0.9873 0.1588
vn 0.0072 0.9873 0.1588
vn 0.0072 0.9873 -0.1588
vn -0.0072 0.9873 -0.1588
vn 0.0203 0.8573 -0.5144
vn -0.0203 0.8573 -0.5144
vn 0.0167 0.4078 -0.9129
vn -0.0167 0.4078 -0.9129
vn 0.0000 -1.0000 -0.0000
vn 1.0000 0.0000 0.0000
vn -1.0000 0.0000 0.0000
usemtl None
s 1
f 1/1/1 3/2/1 2/3/1
f 4/4/2 6/5/2 5/6/2
f 7/7/3 9/8/3 8/9/3
f 10/10/4 12/11/5 11/12/4
f 13/13/6 10/14/7 14/15/6
f 2/16/8 13/17/9 15/18/8
f 16/19/10 9/20/11 7/21/10
f 17/22/12 16/23/13 18/24/12
f 19/25/14 17/26/15 20/27/14
f 21/28/16 3/29/17 1/30/16
f 22/31/18 21/32/19 23/33/18
f 6/34/20 22/35/21 24/36/20
f 25/37/22 4/38/23 26/39/22
f 27/40/24 25/41/25 28/42/24
f 8/43/26 27/44/27 29/45/26
f 11/46/28 12/47/28 19/48/28
f 26/49/29 31/50/29 30/51/29
f 6/52/30 12/53/30 3/54/30
f 1/1/1 2/3/1 32/55/1
f 4/4/2 5/6/2 26/56/2
f 7/7/3 8/9/3 30/57/3
f 10/10/4 11/12/4 14/58/5
f 13/13/6 14/15/6 15/59/7
f 2/16/8 15/18/8 32/60/9
f 16/19/10 7/21/10 18/61/11
f 17/22/12 18/24/12 20/62/13
f 19/25/14 20/27/14 31/63/15
f 21/28/16 1/30/16 23/64/17
f 22/31/18 23/33/18 24/65/19
f 6/34/20 24/36/20 5/66/21
f 25/37/22 26/39/22 28/67/23
f 27/40/24 28/42/24 29/68/25
f 8/43/26 29/45/26 30/69/27
f 11/46/28 19/48/28 31/70/28
f 31/50/29 5/71/29 11/72/29
f 14/73/29 32/74/29 15/75/29
f 32/74/29 5/71/29 1/76/29
f 23/77/29 1/76/29 24/78/29
f 5/71/29 31/50/29 26/49/29
f 28/79/29 30/51/29 29/80/29
f 30/51/29 31/50/29 7/81/29
f 18/82/29 7/81/29 20/83/29
f 11/72/29 32/74/29 14/73/29
f 1/76/29 5/71/29 24/78/29
f 26/49/29 30/51/29 28/79/29
f 7/81/29 31/50/29 20/83/29
f 11/72/29 5/71/29 32/74/29
f 13/84/30 2/85/30 10/86/30
f 12/53/30 4/87/30 19/88/30
f 17/89/30 9/90/30 16/91/30
f 9/90/30 4/87/30 8/92/30
f 27/93/30 8/92/30 25/94/30
f 4/87/30 12/53/30 6/52/30
f 22/95/30 3/54/30 21/96/30
f 3/54/30 12/53/30 2/85/30
f 10/86/30 2/85/30 12/53/30
f 17/89/30 19/88/30 9/90/30
f 25/94/30 8/92/30 4/87/30
f 22/95/30 6/52/30 3/54/30
f 19/88/30 4/87/30 9/90/30
